# xmcd
#
# Track frame offsets:
#	150
#	17697
#	33537
#	55220
#	69688
#	87380
#	111226
#	125773
#	145646
#	164244
#	184715
#	199937
#
# Disc length: 2876 seconds
#
# Revision: 2
# Processed by: cddbd v1.5.2PL0 Copyright (c) Steve Scherf et al.
# Submitted via: EasyCDDAExtractor 8.2.2.1
#
DISCID=b40b3a0c
DTITLE=Lydia - Love Celebrate
DYEAR=2553
DGENRE=R&B
TTITLE0=Y.O.U
TTITLE1=ข้อความในใจ
TTITLE2=ทั้งชีวิต
TTITLE3=Someday
TTITLE4=1 วินาทีก็ช้าไป
TTITLE5=ระหว่างเราคืออะไร
TTITLE6=ได้ไหม..ถ้าฉันจะบอกว่ารักเธอ
TTITLE7=Is This Love? ใช่รักหรือเปล่า
TTITLE8=ว่างแล้วช่วยโทรกลับ
TTITLE9=กฏของแฟนเก่า
TTITLE10=ทำไมไม่รับสักที
TTITLE11=You Have A Call
EXTD=
EXTT0=
EXTT1=
EXTT2=
EXTT3=
EXTT4=
EXTT5=
EXTT6=
EXTT7=
EXTT8=
EXTT9=
EXTT10=
EXTT11=
PLAYORDER=
